<?xml version="1.0" ?><svg fill="#10dc57" height="24" viewBox="0 0 24 24" width="24" xmlns="http://www.w3.org/2000/svg"><path clip-rule="evenodd" d="M1.25 6C1.25 5.58579 1.58579 5.25 2 5.25H22C22.4142 5.25 22.75 5.58579 22.75 6V13C22.75 13.3782 22.4683 13.6973 22.093 13.7442L14.093 14.7442C13.682 14.7956 13.3072 14.504 13.2558 14.093C13.2044 13.682 13.496 13.3072 13.907 13.2558L21.25 12.3379V6.75H2.75V12.3379L10.093 13.2558C10.504 13.3072 10.7956 13.682 10.7442 14.093C10.6928 14.504 10.318 14.7956 9.90697 14.7442L1.90697 13.7442C1.53165 13.6973 1.25 13.3782 1.25 13V6Z" fill="#10dc57" fill-rule="evenodd"/><path clip-rule="evenodd" d="M9.25 11.5C9.25 11.0858 9.58579 10.75 10 10.75H14C14.4142 10.75 14.75 11.0858 14.75 11.5V16.5C14.75 16.9142 14.4142 17.25 14 17.25H10C9.58579 17.25 9.25 16.9142 9.25 16.5V11.5ZM10.75 12.25V15.75H13.25V12.25H10.75Z" fill="#10dc57" fill-rule="evenodd"/><path clip-rule="evenodd" d="M8.25 4.5C8.25 3.25736 9.25736 2.25 10.5 2.25H13.5C14.7426 2.25 15.75 3.25736 15.75 4.5V6C15.75 6.41421 15.4142 6.75 15 6.75C14.5858 6.75 14.25 6.41421 14.25 6V4.5C14.25 4.08579 13.9142 3.75 13.5 3.75H10.5C10.0858 3.75 9.75 4.08579 9.75 4.5V6C9.75 6.41421 9.41421 6.75 9 6.75C8.58579 6.75 8.25 6.41421 8.25 6V4.5Z" fill="#10dc57" fill-rule="evenodd"/><path clip-rule="evenodd" d="M3 12.75C3.41421 12.75 3.75 13.0858 3.75 13.5V20.25H5.5C5.91421 20.25 6.25 20.5858 6.25 21C6.25 21.4142 5.91421 21.75 5.5 21.75H3C2.58579 21.75 2.25 21.4142 2.25 21V13.5C2.25 13.0858 2.58579 12.75 3 12.75ZM21 12.75C21.4142 12.75 21.75 13.0858 21.75 13.5V21C21.75 21.4142 21.4142 21.75 21 21.75H9.5C9.08579 21.75 8.75 21.4142 8.75 21C8.75 20.5858 9.08579 20.25 9.5 20.25H20.25V13.5C20.25 13.0858 20.5858 12.75 21 12.75Z" fill="#10dc57" fill-rule="evenodd"/></svg>