<?xml version="1.0" ?><svg style="enable-background:new 0 0 512 512;" version="1.1" viewBox="0 0 512 512" xml:space="preserve" xmlns="http://www.w3.org/2000/svg" xmlns:xlink="http://www.w3.org/1999/xlink"><g id="_x33_0_x2C__call_x2C__consult_x2C__Doctor_x2C__on-call"><g id="XMLID_1452_"><g id="XMLID_1453_"><path d="M150.764,159.883c1.953-1.953,1.953-5.119,0-7.071L86.458,88.505c-1.951-1.952-5.119-1.952-7.07,0     c-1.953,1.953-1.953,5.119,0,7.071l64.306,64.307c0.976,0.976,2.256,1.464,3.535,1.464     C148.508,161.348,149.788,160.859,150.764,159.883z" id="XMLID_880_"/><path d="M367.126,369.173l-68.729-68.728c-1.951-1.953-5.119-1.953-7.07,0c-1.953,1.952-1.953,5.118,0,7.07     l68.728,68.728c1.951,1.953,5.119,1.953,7.07,0C369.079,374.291,369.079,371.125,367.126,369.173z" id="XMLID_879_"/><path d="M377.738,405.603c17.395-19.539,25.048-46.029,20.533-71.849c-0.177-1.013-0.662-1.947-1.39-2.674     l-64.441-64.441c-0.727-0.728-1.66-1.212-2.672-1.39c-29.469-5.165-59.005,5.343-78.589,27.186l-92.775-92.776     c22.36-20.234,32.19-50.022,27.2-78.571c-0.178-1.013-0.663-1.947-1.391-2.675l-64.431-64.43     c-0.727-0.727-1.661-1.212-2.674-1.39c-26.787-4.684-54.976,3.451-75.487,23.964c-14.383,14.383-20.66,33.969-18.658,58.214     c1.776,21.515,10.032,46.177,24.537,73.3c0.231,0.433,0.526,0.83,0.874,1.178l193.898,193.896c0.35,0.35,0.749,0.646,1.185,0.878     c30.444,16.208,57.636,24.427,80.819,24.428c0.001,0,0.002,0,0.003,0c18.541,0,34.097-5.331,46.342-15.824l32.707,32.708     c8.076,8.077,8.076,21.218,0,29.295c-8.076,8.076-21.218,8.076-29.296,0l-17.02-17.02c-1.951-1.953-5.119-1.953-7.07,0     l-23.468,23.468c-1.953,1.952-1.953,5.118,0,7.07c1.951,1.953,5.119,1.953,7.07,0l19.933-19.932l13.485,13.484     c5.988,5.987,13.853,8.98,21.719,8.98c7.865,0,15.73-2.993,21.718-8.982c11.976-11.975,11.976-31.461,0-43.436L377.738,405.603z      M324.277,418.452c-21.363-0.001-46.751-7.707-75.464-22.906L55.971,202.705C39.428,171.577,16.94,115.38,48.692,83.628     C66.5,65.82,90.73,58.644,113.85,62.192l62.155,62.155c3.648,23.769-4.302,48.021-21.437,65.157     c-2.245,2.245-4.411,4.172-6.622,5.891c-2.373,1.846-2.592,5.358-0.466,7.483l100.467,100.467c2.1,2.102,5.564,1.917,7.43-0.399     c2.074-2.576,4.019-4.763,5.944-6.688c17.657-17.656,41.828-25.002,65.184-21.411l62.167,62.168     c3.649,23.767-4.301,48.02-21.436,65.158C356.433,412.975,341.979,418.453,324.277,418.452z" id="XMLID_1483_"/><path d="M472.505,127.255c-7.391,0-13.662,4.867-15.787,11.563h-10.283c-0.82-9.074-3.851-17.515-8.546-24.79     l15.739-15.739c9.001,5.776,21.076,4.736,28.956-3.144c9.086-9.085,9.09-23.794,0-32.883c-9.088-9.087-23.795-9.088-32.883,0     c-7.855,7.855-8.939,19.925-3.145,28.957l-14.877,14.877c-8.983-9.547-21.319-15.896-35.112-17.144V53.667     c6.695-2.125,11.563-8.397,11.563-15.787c0-9.133-7.43-16.562-16.563-16.562c-9.133,0-16.563,7.43-16.563,16.562     c0,7.39,4.867,13.662,11.563,15.787v35.284c-11.444,1.035-21.89,5.576-30.247,12.548l-7.284-7.283     c3.216-6.177,2.302-14.052-2.989-19.341c-3.128-3.128-7.287-4.851-11.711-4.851c-9.152,0-16.563,7.407-16.563,16.563     c0,9.153,7.407,16.563,16.563,16.563c2.701,0,5.301-0.649,7.63-1.862l7.283,7.284c-7.043,8.442-11.602,19.017-12.575,30.598     h-17.123c-2.247-9.039-10.408-15.767-20.133-15.767c-11.451,0-20.767,9.316-20.767,20.767c0,11.451,9.316,20.767,20.767,20.767     c9.725,0,17.886-6.728,20.133-15.767h17.176c1.096,11.308,5.621,21.625,12.522,29.897l-7.283,7.284     c-6.175-3.216-14.05-2.303-19.341,2.989c-6.473,6.471-6.475,16.95,0,23.423c3.128,3.128,7.287,4.851,11.711,4.851     c9.152,0,16.563-7.407,16.563-16.563c0-2.701-0.649-5.3-1.862-7.63l7.284-7.283c8.357,6.972,18.803,11.514,30.247,12.548v10.284     c-6.695,2.126-11.563,8.397-11.563,15.787c0,9.133,7.43,16.563,16.563,16.563c9.133,0,16.563-7.43,16.563-16.563     c0-7.39-4.867-13.662-11.563-15.787v-10.284c11.444-1.035,21.89-5.576,30.247-12.548l7.284,7.283     c-3.216,6.177-2.302,14.052,2.989,19.341c3.128,3.128,7.287,4.851,11.711,4.851s8.583-1.723,11.711-4.851     c6.473-6.471,6.475-16.95,0-23.423c-5.288-5.289-13.163-6.205-19.341-2.989l-7.283-7.284     c6.973-8.357,11.514-18.803,12.549-30.248h10.283c2.125,6.696,8.396,11.563,15.787,11.563c9.133,0,16.563-7.43,16.563-16.563     C489.068,134.685,481.638,127.255,472.505,127.255z M456.772,69.332c5.18-5.18,13.563-5.18,18.742,0     c5.167,5.167,5.167,13.574,0,18.741c-2.503,2.503-5.831,3.882-9.371,3.882c-3.54,0-6.868-1.379-9.371-3.882     C451.605,82.906,451.605,74.499,456.772,69.332z M391.568,31.318c3.618,0,6.563,2.944,6.563,6.562     c0,3.619-2.944,6.563-6.563,6.563c-3.618,0-6.563-2.944-6.563-6.563C385.005,34.262,387.949,31.318,391.568,31.318z      M327.774,86.586c0-3.626,2.936-6.563,6.563-6.563c3.627,0,6.563,2.935,6.563,6.563c0,3.626-2.936,6.563-6.563,6.563     C332.583,93.149,327.774,90.214,327.774,86.586z M299.418,154.935c-5.938,0-10.767-4.83-10.767-10.767     c0-5.937,4.83-10.767,10.767-10.767c5.937,0,10.767,4.83,10.767,10.767C310.185,150.105,305.355,154.935,299.418,154.935z      M334.336,207.612c-1.753,0-3.4-0.683-4.641-1.922c-2.565-2.564-2.565-6.716,0-9.28c2.565-2.565,6.715-2.565,9.281,0     c1.239,1.239,1.922,2.887,1.922,4.64C340.899,204.676,337.963,207.612,334.336,207.612z M391.568,231.318     c-3.618,0-6.563-2.944-6.563-6.563c0-3.619,2.944-6.563,6.563-6.563c3.618,0,6.563,2.944,6.563,6.563     C398.13,228.374,395.186,231.318,391.568,231.318z M455.362,201.049c0,3.626-2.935,6.563-6.563,6.563     c-3.627,0-6.563-2.935-6.563-6.563c0-3.626,2.936-6.563,6.563-6.563C452.426,194.487,455.362,197.422,455.362,201.049z      M391.568,188.922c-24.871,0-45.105-20.233-45.105-45.104s20.233-45.104,45.105-45.104c24.871,0,45.104,20.233,45.104,45.104     S416.439,188.922,391.568,188.922z M472.505,150.38c-3.618,0-6.563-2.944-6.563-6.563c0-3.619,2.944-6.563,6.563-6.563     c3.618,0,6.563,2.944,6.563,6.563C479.068,147.437,476.123,150.38,472.505,150.38z" id="XMLID_1472_"/><path d="M403.13,111.839c-9.133,0-16.563,7.43-16.563,16.563s7.43,16.563,16.563,16.563     c9.133,0,16.563-7.43,16.563-16.563S412.263,111.839,403.13,111.839z M403.13,134.964c-3.618,0-6.563-2.944-6.563-6.563     c0-3.619,2.944-6.563,6.563-6.563c3.618,0,6.563,2.944,6.563,6.563C409.693,132.02,406.748,134.964,403.13,134.964z" id="XMLID_1469_"/><path d="M380.005,150.38c-7.007,0-12.708,5.701-12.708,12.708c0,7.007,5.701,12.708,12.708,12.708     c7.007,0,12.708-5.701,12.708-12.708C392.713,156.082,387.012,150.38,380.005,150.38z M380.005,165.797     c-1.493,0-2.708-1.215-2.708-2.708c0-1.494,1.215-2.708,2.708-2.708c1.493,0,2.708,1.215,2.708,2.708     C382.713,164.582,381.498,165.797,380.005,165.797z" id="XMLID_1466_"/><path d="M89.395,346.318c-22.056,0-40,17.944-40,40s17.944,40,40,40c22.056,0,40-17.944,40-40     S111.45,346.318,89.395,346.318z M89.395,416.318c-16.542,0-30-13.458-30-30c0-16.542,13.458-30,30-30s30,13.458,30,30     C119.395,402.86,105.937,416.318,89.395,416.318z" id="XMLID_1463_"/><path d="M449.395,261.318c-16.542,0-30,13.458-30,30c0,16.542,13.458,30,30,30s30-13.458,30-30     C479.395,274.776,465.937,261.318,449.395,261.318z M449.395,311.318c-11.028,0-20-8.972-20-20c0-11.028,8.972-20,20-20     c11.028,0,20,8.972,20,20C469.395,302.346,460.423,311.318,449.395,311.318z" id="XMLID_1460_"/><circle cx="166.895" cy="38.818" id="XMLID_858_" r="7.5"/><circle cx="266.895" cy="78.818" id="XMLID_857_" r="7.5"/><circle cx="246.895" cy="228.818" id="XMLID_856_" r="7.5"/><circle cx="71.895" cy="288.818" id="XMLID_855_" r="7.5"/><circle cx="191.895" cy="433.818" id="XMLID_854_" r="7.5"/><circle cx="446.895" cy="373.818" id="XMLID_853_" r="7.5"/></g></g></g><g id="Layer_1"/></svg>