<?xml version="1.0" ?><!DOCTYPE svg  PUBLIC '-//W3C//DTD SVG 1.1//EN'  'http://www.w3.org/Graphics/SVG/1.1/DTD/svg11.dtd'><svg height="512px" style="enable-background:new 0 0 512 512;" version="1.1" viewBox="0 0 512 512" width="512px" xml:space="preserve" xmlns="http://www.w3.org/2000/svg" xmlns:xlink="http://www.w3.org/1999/xlink"><g id="C_-_156_x2C__global_x2C__Business_x2C__develop_x2C__development_x2C__gear_x2C__work_x2C__world"><g><path d="M210.847,162.709c-3.399,6.578-6.381,13.752-8.947,21.378c16.473,2.819,32.954,4.351,49.419,4.608v-62.645    C236.25,128.259,222.025,141.08,210.847,162.709z"/><path d="M190.997,251.323h60.322v-53.244c-17.393-0.265-34.803-1.919-52.203-4.964    C194.154,210.836,191.365,230.653,190.997,251.323z"/><path d="M309.482,158.408c3.808,7.369,7.114,15.435,9.926,24.013c12.439-2.494,24.848-5.712,37.218-9.685    c-17.446-20.843-41.292-36.201-68.506-43.056C296.02,136.683,303.244,146.334,309.482,158.408z"/><path d="M301.157,162.709c-11.176-21.63-25.397-34.45-40.468-36.657v62.649c16.509-0.229,32.996-1.735,49.438-4.543    C307.555,176.504,304.566,169.308,301.157,162.709z"/><path d="M181.627,260.693h-56.458c0.933,26.112,9.617,50.293,23.838,70.322c13.564-4.469,27.149-8.09,40.745-10.86    C184.778,301.932,181.989,281.71,181.627,260.693z"/><path d="M312.906,193.184c-17.365,3.034-34.78,4.664-52.217,4.9v53.239h60.313C320.635,230.679,317.854,210.888,312.906,193.184z"/><path d="M202.522,353.603c-3.87-7.488-7.223-15.693-10.065-24.429c-12.477,2.508-24.948,5.74-37.401,9.719    c17.475,21.038,41.449,36.539,68.831,43.436C215.987,375.326,208.761,365.675,202.522,353.603z"/><path d="M210.847,349.301c11.178,21.629,25.402,34.449,40.472,36.657v-63.161c-16.519,0.259-33.053,1.801-49.579,4.638    C204.343,335.243,207.376,342.584,210.847,349.301z"/><path d="M198.974,318.405c17.448-3.062,34.905-4.727,52.346-4.991v-52.721h-60.322    C191.362,281.169,194.098,300.812,198.974,318.405z"/><path d="M310.285,327.365c-16.494-2.825-33.034-4.343-49.596-4.573v63.165c15.069-2.207,29.292-15.027,40.468-36.656    C304.639,342.564,307.679,335.2,310.285,327.365z"/><path d="M419.604,281.498c0.316-2.023,1.91-3.607,3.937-3.91l60.263-9.014v-25.147l-60.263-9.014    c-2.026-0.304-3.62-1.887-3.937-3.911c-1.799-11.508-4.863-22.892-9.106-33.835c-0.742-1.915-0.151-4.09,1.458-5.366    l47.648-37.779l-12.637-21.76l-56.754,22.2c-1.898,0.745-4.061,0.173-5.346-1.411c-7.352-9.062-15.729-17.399-24.896-24.779    c-1.599-1.286-2.174-3.463-1.42-5.371l22.295-56.453l-21.891-12.584l-37.977,47.441c-1.274,1.591-3.434,2.175-5.338,1.446    c-10.962-4.21-22.408-7.255-34.021-9.049c-2.025-0.313-3.611-1.906-3.918-3.933l-9.041-59.981h-25.306l-9.063,59.983    c-0.307,2.025-1.893,3.617-3.917,3.931c-11.617,1.797-23.059,4.842-34.005,9.049c-1.904,0.731-4.064,0.147-5.339-1.446    l-37.97-47.439l-21.892,12.583l22.289,56.454c0.754,1.909,0.177,4.086-1.421,5.372c-9.125,7.338-17.499,15.674-24.887,24.778    c-1.286,1.583-3.446,2.155-5.347,1.411l-56.768-22.214l-12.631,21.773l47.64,37.765c1.609,1.275,2.2,3.448,1.459,5.363    c-4.23,10.93-7.289,22.319-9.089,33.853c-0.317,2.024-1.911,3.608-3.937,3.912l-60.28,9.006v25.162l60.28,9.007    c2.026,0.303,3.62,1.887,3.937,3.911c1.801,11.532,4.858,22.922,9.089,33.853c0.741,1.915,0.149,4.088-1.459,5.363l-47.64,37.765    l12.631,21.773l56.768-22.215c1.901-0.744,4.062-0.171,5.347,1.41c7.388,9.104,15.761,17.439,24.887,24.778    c1.599,1.286,2.175,3.463,1.421,5.372l-22.289,56.453l21.892,12.583l37.97-47.439c1.273-1.592,3.431-2.18,5.336-1.446    c10.98,4.212,22.423,7.257,34.008,9.05c2.024,0.313,3.61,1.905,3.917,3.93l9.063,59.983h25.306l9.041-59.981    c0.307-2.025,1.893-3.619,3.918-3.932c11.582-1.79,23.028-4.836,34.023-9.051c1.904-0.729,4.062-0.145,5.336,1.446l37.977,47.441    l21.891-12.584L358.551,389.6c-0.754-1.908-0.179-4.086,1.42-5.371c9.148-7.365,17.525-15.703,24.898-24.781    c1.285-1.582,3.447-2.152,5.344-1.409l56.754,22.2l12.637-21.761l-47.648-37.778c-1.609-1.276-2.2-3.451-1.458-5.365    C414.74,304.388,417.805,293.004,419.604,281.498z M256.004,395.671c-77.331,0-140.249-62.603-140.299-139.569    c-0.001-0.032-0.01-0.062-0.01-0.093c0-0.032,0.009-0.062,0.01-0.093c0.02-31.114,10.315-59.878,27.68-83.111    c0.219-0.399,0.492-0.75,0.805-1.06c25.643-33.639,66.22-55.407,111.813-55.407c45.582,0,86.15,21.756,111.792,55.38    c0.33,0.323,0.617,0.691,0.844,1.111c17.371,23.251,27.664,52.04,27.664,83.179C396.305,333.019,333.366,395.671,256.004,395.671z    "/><path d="M202.522,158.408c6.238-12.073,13.464-21.725,21.365-28.727c-27.206,6.854-51.045,22.204-68.49,43.037    c12.392,3.945,24.802,7.146,37.219,9.635C195.425,173.799,198.724,165.757,202.522,158.408z"/><path d="M321.003,260.693h-60.313v52.716c17.486,0.237,34.947,1.877,52.359,4.927    C317.912,300.761,320.639,281.143,321.003,260.693z"/><path d="M322.141,191.433c5.044,18.334,7.867,38.711,8.232,59.89h56.467c-0.938-26.29-9.732-50.624-24.125-70.734    C349.232,185.058,335.703,188.674,322.141,191.433z"/><path d="M322.269,320.088c13.618,2.777,27.202,6.417,40.739,10.918c14.217-20.027,22.9-44.204,23.832-70.313h-56.467    C330.01,281.685,327.229,301.882,322.269,320.088z"/><path d="M189.879,191.366c-13.539-2.754-27.069-6.35-40.578-10.788c-14.396,20.112-23.193,44.45-24.132,70.744h56.458    C181.993,230.118,184.823,209.716,189.879,191.366z"/><path d="M309.482,353.603c-6.238,12.072-13.463,21.725-21.362,28.727c27.39-6.898,51.371-22.405,68.847-43.454    c-12.43-4.006-24.9-7.255-37.398-9.768C316.722,337.867,313.361,346.095,309.482,353.603z"/></g></g><g id="Layer_1"/></svg>