<svg width="20" height="12" viewBox="0 0 20 12" fill="#ffffff" xmlns="http://www.w3.org/2000/svg">
<path fill-rule="evenodd" clip-rule="evenodd" d="M9.99693 0.0292969C6.17689 0.0292969 2.71268 2.11928 0.156442 5.51396C-0.0521472 5.79208 -0.0521472 6.18063 0.156442 6.45874C2.71268 9.85752 6.17689 11.9475 9.99693 11.9475C13.817 11.9475 17.2812 9.85752 19.8374 6.46283C20.046 6.18472 20.046 5.79617 19.8374 5.51805C17.2812 2.11928 13.817 0.0292969 9.99693 0.0292969ZM10.271 10.1847C7.73517 10.3442 5.6411 8.25425 5.80061 5.71437C5.93149 3.6203 7.62883 1.92296 9.7229 1.79208C12.2587 1.63257 14.3528 3.72255 14.1933 6.26243C14.0583 8.35241 12.3609 10.0497 10.271 10.1847ZM7.73926 5.84116C7.64928 7.20721 8.77812 8.33195 10.1442 8.24607C11.2689 8.17654 12.1851 7.26447 12.2587 6.13155C12.3487 4.76549 11.2198 3.64075 9.85378 3.72664C8.72495 3.80026 7.80879 4.71232 7.73926 5.84116Z" fill="white"/>
</svg>
