<svg width="20" height="12" fill="#fff" xmlns="http://www.w3.org/2000/svg"><path fill-rule="evenodd" clip-rule="evenodd" d="M9.997.03c-3.82 0-7.284 2.09-9.84 5.484a.791.791 0 0 0 0 .945c2.556 3.399 6.02 5.489 9.84 5.489 3.82 0 7.284-2.09 9.84-5.485a.791.791 0 0 0 0-.945C17.281 2.119 13.817.029 9.997.029Zm.274 10.155a4.208 4.208 0 0 1-4.47-4.47 4.215 4.215 0 0 1 3.922-3.923 4.208 4.208 0 0 1 4.47 4.47 4.228 4.228 0 0 1-3.922 3.923ZM7.739 5.84a2.26 2.26 0 0 0 2.405 2.405 2.274 2.274 0 0 0 2.115-2.114 2.26 2.26 0 0 0-2.405-2.405A2.274 2.274 0 0 0 7.739 5.84Z"/></svg>