<?xml version="1.0" encoding="utf-8"?><svg xmlns="http://www.w3.org/2000/svg" xmlns:xlink="http://www.w3.org/1999/xlink"><symbol viewBox="0 0 64 64" id="awward" xmlns="http://www.w3.org/2000/svg"><path d="M53.544 29.171A6.665 6.665 0 0055 25.021a6.63 6.63 0 00-2.958-5.528L51.303 19H47v-1c0-3.52-2.614-6.433-6.002-6.92V10c0-1.51-1.125-2.75-2.578-2.957.36-.6.58-1.294.58-2.043 0-2.206-1.794-4-4-4s-4 1.794-4 4c0 .749.22 1.442.579 2.042A2.995 2.995 0 0028.998 10v1.08c-3.388.487-6.002 3.4-6.002 6.92l.001 1h-4.299l-.739.493A6.626 6.626 0 0015 25.021c0 1.503.517 2.977 1.456 4.15l.264.33c.392.489.731 1.014 1.027 1.562C9.51 31.707 3 38.601 3 47c0 8.822 7.178 16 16 16 1.026 0 2.026-.106 2.998-.292V63h27v-3a2.996 2.996 0 00-2-2.816V54c0-1.654-1.346-3-3-3h-.999l-.002-3.617-.973-.488a5.429 5.429 0 01-2.996-4.483A24.421 24.421 0 0047 24.37V21h3.697l.235.157A4.633 4.633 0 0153 25.021a4.65 4.65 0 01-1.018 2.9l-.265.331A12.45 12.45 0 0049 36c0 1.654 1.346 3 3 3s3-1.346 3-3v-1h-2v1a1.001 1.001 0 01-2 0c0-2.354.81-4.661 2.279-6.499l.265-.33zM35 3c1.103 0 2 .897 2 2s-.897 2-2 2-2-.897-2-2 .897-2 2-2zm-3.002 6h6c.551 0 1 .449 1 1v1h-8v-1c0-.551.449-1 1-1zm-2.002 4H40a5.01 5.01 0 014.899 4H25.11c.466-2.277 2.473-4 4.886-4zm-10.928 8.157l.235-.157h3.695L23 24.37c0 2.574.399 5.089 1.184 7.508a15.891 15.891 0 00-4.224-.83 12.373 12.373 0 00-1.677-2.797l-.265-.331A4.66 4.66 0 0117 25.02c0-1.556.773-3 2.068-3.863zM5 47c0-7.72 6.28-14 14-14s14 6.28 14 14-6.28 14-14 14S5 54.72 5 47zm41.998 14H26.729a16.033 16.033 0 002.819-2h16.451c.551 0 1 .448 1 1v1zm-2-7v3H31.47a16.027 16.027 0 002.352-4h10.176c.551 0 1 .448 1 1zm-3.999-5.384L41 51h-6.526c.331-1.281.526-2.617.526-4s-.195-2.719-.527-4h2.595a7.42 7.42 0 003.931 5.616zM37.62 41h-3.798a16.086 16.086 0 00-7.085-7.995A22.266 22.266 0 0125 24.37V19h20v5.37A22.428 22.428 0 0137.62 41z"/><path d="M28 48.586L26.415 47c-1.289-1.289-3.54-1.289-4.829 0l-.637.638a1.235 1.235 0 01-.875.362h-.148c-.33 0-.64-.129-.873-.361l-.691-.691a1.227 1.227 0 01-.362-.874c0-.377.169-.729.463-.964l.573-.459A2.547 2.547 0 0020 42.648a2.58 2.58 0 00-.751-1.813L17.415 39c-1.289-1.289-3.541-1.289-4.829 0l-1.358 1.358A4.179 4.179 0 0010 43.345c0 .571.114 1.127.339 1.651a18.69 18.69 0 009.615 9.745l2.02.897c.54.24 1.113.362 1.704.362a4.16 4.16 0 002.964-1.229L28 53.414c.645-.646 1-1.503 1-2.414s-.355-1.769-1-2.414zM26.586 52l-1.358 1.358a2.22 2.22 0 01-2.441.452l-2.02-.897a16.693 16.693 0 01-8.589-8.705 2.198 2.198 0 01-.178-.886c0-.585.228-1.136.642-1.551L14 40.414c.267-.268.622-.414 1-.414s.733.146 1 .414l1.835 1.835a.569.569 0 01.165.399.557.557 0 01-.212.44l-.574.459A3.224 3.224 0 0016 46.074c0 .864.337 1.677.947 2.287l.691.691a3.213 3.213 0 002.288.948h.148c.864 0 1.676-.336 2.288-.947l.638-.639c.533-.535 1.465-.535 2 0L26.585 50c.268.268.415.622.415 1s-.147.732-.414 1zm9.118-14.702l1.425 1.404a20.37 20.37 0 005.861-13.67l-1.999-.064a18.379 18.379 0 01-5.287 12.33zM41 21h2v2h-2zm16-11h2v2h-2zm0 4h2v2h-2zm2-2h2v2h-2zm-4 0h2v2h-2zM46 1h2v2h-2zm0 4h2v2h-2zm2-2h2v2h-2zm-4 0h2v2h-2zM21 1h2v2h-2zm0 4h2v2h-2zm2-2h2v2h-2zm-4 0h2v2h-2zm-8 4h2v2h-2zm0 4h2v2h-2zm2-2h2v2h-2zM9 9h2v2H9zm0 9h2v2H9zm0 4h2v2H9zm2-2h2v2h-2zm-4 0h2v2H7z"/></symbol><symbol fill="#10dc57" viewBox="0 0 24 24" id="branding" xmlns="http://www.w3.org/2000/svg"><path clip-rule="evenodd" d="M1.25 6A.75.75 0 012 5.25h20a.75.75 0 01.75.75v7a.75.75 0 01-.657.744l-8 1a.75.75 0 01-.186-1.488l7.343-.918V6.75H2.75v5.588l7.343.918a.75.75 0 11-.186 1.488l-8-1A.75.75 0 011.25 13V6z" fill-rule="evenodd"/><path clip-rule="evenodd" d="M9.25 11.5a.75.75 0 01.75-.75h4a.75.75 0 01.75.75v5a.75.75 0 01-.75.75h-4a.75.75 0 01-.75-.75v-5zm1.5.75v3.5h2.5v-3.5h-2.5zM8.25 4.5a2.25 2.25 0 012.25-2.25h3a2.25 2.25 0 012.25 2.25V6a.75.75 0 01-1.5 0V4.5a.75.75 0 00-.75-.75h-3a.75.75 0 00-.75.75V6a.75.75 0 01-1.5 0V4.5z" fill-rule="evenodd"/><path clip-rule="evenodd" d="M3 12.75a.75.75 0 01.75.75v6.75H5.5a.75.75 0 010 1.5H3a.75.75 0 01-.75-.75v-7.5a.75.75 0 01.75-.75zm18 0a.75.75 0 01.75.75V21a.75.75 0 01-.75.75H9.5a.75.75 0 010-1.5h10.75V13.5a.75.75 0 01.75-.75z" fill-rule="evenodd"/></symbol><symbol viewBox="0 0 24 24" id="clients" xmlns="http://www.w3.org/2000/svg"><g data-name="Layer 2"><path d="M20 10a3 3 0 10-3 3 3 3 0 003-3zm-4 0a1 1 0 111 1 1 1 0 01-1-1zm1 4a5 5 0 00-3.56 1.48A6 6 0 002 18v3h20v-2a5 5 0 00-5-5zm-3 5a3 3 0 016 0z"/><circle cx="8" cy="7" r="4"/></g></symbol><symbol viewBox="0 0 32 32" id="clock" xmlns="http://www.w3.org/2000/svg"><defs><style>.dcls-1{fill:#101820}</style></defs><g data-name="Layer 15" id="dLayer_15"><path class="dcls-1" d="M16 31a15 15 0 1115-15 15 15 0 01-15 15zm0-28a13 13 0 1013 13A13 13 0 0016 3z"/><path class="dcls-1" d="M20.24 21.66l-4.95-4.95A1 1 0 0115 16V8h2v7.59l4.66 4.65z"/></g></symbol><symbol viewBox="0 0 512 512" id="consulting" xmlns="http://www.w3.org/2000/svg"><path d="M150.764 159.883a5 5 0 000-7.071L86.458 88.505a5 5 0 00-7.07 7.071l64.306 64.307a4.984 4.984 0 003.535 1.464 4.98 4.98 0 003.535-1.464zm216.362 209.29l-68.729-68.728a4.998 4.998 0 00-7.07 0 4.998 4.998 0 000 7.07l68.728 68.728a4.998 4.998 0 007.07 0 4.997 4.997 0 00.001-7.07z"/><path d="M377.738 405.603c17.395-19.539 25.048-46.029 20.533-71.849a4.993 4.993 0 00-1.39-2.674l-64.441-64.441a4.998 4.998 0 00-2.672-1.39c-29.469-5.165-59.005 5.343-78.589 27.186l-92.775-92.776c22.36-20.234 32.19-50.022 27.2-78.571a5.008 5.008 0 00-1.391-2.675l-64.431-64.43a5.007 5.007 0 00-2.674-1.39c-26.787-4.684-54.976 3.451-75.487 23.964-14.383 14.383-20.66 33.969-18.658 58.214 1.776 21.515 10.032 46.177 24.537 73.3.231.433.526.83.874 1.178l193.898 193.896c.35.35.749.646 1.185.878 30.444 16.208 57.636 24.427 80.819 24.428h.003c18.541 0 34.097-5.331 46.342-15.824l32.707 32.708c8.076 8.077 8.076 21.218 0 29.295-8.076 8.076-21.218 8.076-29.296 0l-17.02-17.02a4.998 4.998 0 00-7.07 0l-23.468 23.468a4.998 4.998 0 000 7.07 4.998 4.998 0 007.07 0l19.933-19.932 13.485 13.484c5.988 5.987 13.853 8.98 21.719 8.98 7.865 0 15.73-2.993 21.718-8.982 11.976-11.975 11.976-31.461 0-43.436l-32.661-32.659zm-53.461 12.849c-21.363-.001-46.751-7.707-75.464-22.906L55.971 202.705C39.428 171.577 16.94 115.38 48.692 83.628 66.5 65.82 90.73 58.644 113.85 62.192l62.155 62.155c3.648 23.769-4.302 48.021-21.437 65.157-2.245 2.245-4.411 4.172-6.622 5.891a5.002 5.002 0 00-.466 7.483l100.467 100.467a5 5 0 007.43-.399c2.074-2.576 4.019-4.763 5.944-6.688 17.657-17.656 41.828-25.002 65.184-21.411l62.167 62.168c3.649 23.767-4.301 48.02-21.436 65.158-10.803 10.802-25.257 16.28-42.959 16.279zm148.228-291.197c-7.391 0-13.662 4.867-15.787 11.563h-10.283a54.72 54.72 0 00-8.546-24.79l15.739-15.739c9.001 5.776 21.076 4.736 28.956-3.144 9.086-9.085 9.09-23.794 0-32.883-9.088-9.087-23.795-9.088-32.883 0-7.855 7.855-8.939 19.925-3.145 28.957l-14.877 14.877c-8.983-9.547-21.319-15.896-35.112-17.144V53.667c6.695-2.125 11.563-8.397 11.563-15.787 0-9.133-7.43-16.562-16.563-16.562s-16.563 7.43-16.563 16.562c0 7.39 4.867 13.662 11.563 15.787v35.284c-11.444 1.035-21.89 5.576-30.247 12.548l-7.284-7.283c3.216-6.177 2.302-14.052-2.989-19.341a16.454 16.454 0 00-11.711-4.851c-9.152 0-16.563 7.407-16.563 16.563 0 9.153 7.407 16.563 16.563 16.563a16.47 16.47 0 007.63-1.862l7.283 7.284c-7.043 8.442-11.602 19.017-12.575 30.598h-17.123c-2.247-9.039-10.408-15.767-20.133-15.767-11.451 0-20.767 9.316-20.767 20.767 0 11.451 9.316 20.767 20.767 20.767 9.725 0 17.886-6.728 20.133-15.767h17.176c1.096 11.308 5.621 21.625 12.522 29.897l-7.283 7.284c-6.175-3.216-14.05-2.303-19.341 2.989-6.473 6.471-6.475 16.95 0 23.423a16.454 16.454 0 0011.711 4.851c9.152 0 16.563-7.407 16.563-16.563 0-2.701-.649-5.3-1.862-7.63l7.284-7.283c8.357 6.972 18.803 11.514 30.247 12.548v10.284c-6.695 2.126-11.563 8.397-11.563 15.787 0 9.133 7.43 16.563 16.563 16.563s16.563-7.43 16.563-16.563c0-7.39-4.867-13.662-11.563-15.787v-10.284c11.444-1.035 21.89-5.576 30.247-12.548l7.284 7.283c-3.216 6.177-2.302 14.052 2.989 19.341 3.128 3.128 7.287 4.851 11.711 4.851s8.583-1.723 11.711-4.851c6.473-6.471 6.475-16.95 0-23.423-5.288-5.289-13.163-6.205-19.341-2.989l-7.283-7.284c6.973-8.357 11.514-18.803 12.549-30.248h10.283c2.125 6.696 8.396 11.563 15.787 11.563 9.133 0 16.563-7.43 16.563-16.563s-7.43-16.563-16.563-16.563zm-15.733-57.923c5.18-5.18 13.563-5.18 18.742 0 5.167 5.167 5.167 13.574 0 18.741a13.166 13.166 0 01-9.371 3.882c-3.54 0-6.868-1.379-9.371-3.882-5.167-5.167-5.167-13.574 0-18.741zm-65.204-38.014a6.57 6.57 0 016.563 6.562 6.57 6.57 0 01-6.563 6.563 6.57 6.57 0 01-6.563-6.563 6.57 6.57 0 016.563-6.562zm-63.794 55.268a6.56 6.56 0 016.563-6.563 6.56 6.56 0 016.563 6.563 6.56 6.56 0 01-6.563 6.563c-1.754 0-6.563-2.935-6.563-6.563zm-28.356 68.349c-5.938 0-10.767-4.83-10.767-10.767 0-5.937 4.83-10.767 10.767-10.767 5.937 0 10.767 4.83 10.767 10.767 0 5.937-4.83 10.767-10.767 10.767zm34.918 52.677c-1.753 0-3.4-.683-4.641-1.922a6.558 6.558 0 010-9.28 6.559 6.559 0 019.281 0 6.52 6.52 0 011.922 4.64 6.558 6.558 0 01-6.562 6.562zm57.232 23.706a6.57 6.57 0 01-6.563-6.563 6.57 6.57 0 016.563-6.563 6.57 6.57 0 016.563 6.563 6.572 6.572 0 01-6.563 6.563zm63.794-30.269a6.56 6.56 0 01-6.563 6.563 6.56 6.56 0 01-6.563-6.563 6.56 6.56 0 016.563-6.563 6.56 6.56 0 016.563 6.563zm-63.794-12.127c-24.871 0-45.105-20.233-45.105-45.104s20.233-45.104 45.105-45.104c24.871 0 45.104 20.233 45.104 45.104s-20.233 45.104-45.104 45.104zm80.937-38.542a6.57 6.57 0 01-6.563-6.563 6.57 6.57 0 016.563-6.563 6.57 6.57 0 016.563 6.563 6.57 6.57 0 01-6.563 6.563z"/><path d="M403.13 111.839c-9.133 0-16.563 7.43-16.563 16.563s7.43 16.563 16.563 16.563 16.563-7.43 16.563-16.563-7.43-16.563-16.563-16.563zm0 23.125a6.57 6.57 0 01-6.563-6.563 6.57 6.57 0 016.563-6.563 6.57 6.57 0 016.563 6.563 6.57 6.57 0 01-6.563 6.563zm-23.125 15.416c-7.007 0-12.708 5.701-12.708 12.708 0 7.007 5.701 12.708 12.708 12.708 7.007 0 12.708-5.701 12.708-12.708 0-7.006-5.701-12.708-12.708-12.708zm0 15.417a2.711 2.711 0 01-2.708-2.708 2.71 2.71 0 012.708-2.708 2.711 2.711 0 012.708 2.708 2.711 2.711 0 01-2.708 2.708zM89.395 346.318c-22.056 0-40 17.944-40 40s17.944 40 40 40 40-17.944 40-40-17.945-40-40-40zm0 70c-16.542 0-30-13.458-30-30s13.458-30 30-30 30 13.458 30 30-13.458 30-30 30zm360-155c-16.542 0-30 13.458-30 30s13.458 30 30 30 30-13.458 30-30-13.458-30-30-30zm0 50c-11.028 0-20-8.972-20-20s8.972-20 20-20 20 8.972 20 20-8.972 20-20 20z"/><circle cx="166.895" cy="38.818" r="7.5"/><circle cx="266.895" cy="78.818" r="7.5"/><circle cx="246.895" cy="228.818" r="7.5"/><circle cx="71.895" cy="288.818" r="7.5"/><circle cx="191.895" cy="433.818" r="7.5"/><circle cx="446.895" cy="373.818" r="7.5"/></symbol><symbol viewBox="0 0 512 512" id="development" xmlns="http://www.w3.org/2000/svg"><path d="M210.847 162.709c-3.399 6.578-6.381 13.752-8.947 21.378a322.472 322.472 0 0049.419 4.608V126.05c-15.069 2.209-29.294 15.03-40.472 36.659zm-19.85 88.614h60.322v-53.244c-17.393-.265-34.803-1.919-52.203-4.964-4.962 17.721-7.751 37.538-8.119 58.208zm118.485-92.915c3.808 7.369 7.114 15.435 9.926 24.013a340.558 340.558 0 0037.218-9.685c-17.446-20.843-41.292-36.201-68.506-43.056 7.9 7.003 15.124 16.654 21.362 28.728zm-8.325 4.301c-11.176-21.63-25.397-34.45-40.468-36.657v62.649a319.628 319.628 0 0049.438-4.543c-2.572-7.654-5.561-14.85-8.97-21.449zm-119.53 97.984h-56.458c.933 26.112 9.617 50.293 23.838 70.322 13.564-4.469 27.149-8.09 40.745-10.86-4.974-18.223-7.763-38.445-8.125-59.462zm131.279-67.509a328.857 328.857 0 01-52.217 4.9v53.239h60.313c-.367-20.644-3.148-40.435-8.096-58.139zM202.522 353.603c-3.87-7.488-7.223-15.693-10.065-24.429a348.4 348.4 0 00-37.401 9.719c17.475 21.038 41.449 36.539 68.831 43.436-7.9-7.003-15.126-16.654-21.365-28.726zm8.325-4.302c11.178 21.629 25.402 34.449 40.472 36.657v-63.161a322.567 322.567 0 00-49.579 4.638c2.603 7.808 5.636 15.149 9.107 21.866zm-11.873-30.896c17.448-3.062 34.905-4.727 52.346-4.991v-52.721h-60.322c.364 20.476 3.1 40.119 7.976 57.712zm111.311 8.96a319.712 319.712 0 00-49.596-4.573v63.165c15.069-2.207 29.292-15.027 40.468-36.656 3.482-6.737 6.522-14.101 9.128-21.936z"/><path d="M419.604 281.498a4.685 4.685 0 013.937-3.91l60.263-9.014v-25.147l-60.263-9.014a4.688 4.688 0 01-3.937-3.911 163.718 163.718 0 00-9.106-33.835 4.687 4.687 0 011.458-5.366l47.648-37.779-12.637-21.76-56.754 22.2a4.683 4.683 0 01-5.346-1.411 166.799 166.799 0 00-24.896-24.779 4.683 4.683 0 01-1.42-5.371l22.295-56.453-21.891-12.584-37.977 47.441a4.692 4.692 0 01-5.338 1.446 165.568 165.568 0 00-34.021-9.049 4.688 4.688 0 01-3.918-3.933l-9.041-59.981h-25.306l-9.063 59.983a4.69 4.69 0 01-3.917 3.931 165.466 165.466 0 00-34.005 9.049 4.687 4.687 0 01-5.339-1.446l-37.97-47.439-21.892 12.583 22.289 56.454a4.686 4.686 0 01-1.421 5.372 166.43 166.43 0 00-24.887 24.778 4.687 4.687 0 01-5.347 1.411L65.034 131.75l-12.631 21.773 47.64 37.765a4.684 4.684 0 011.459 5.363 164.058 164.058 0 00-9.089 33.853 4.69 4.69 0 01-3.937 3.912l-60.28 9.006v25.162l60.28 9.007a4.687 4.687 0 013.937 3.911 164.109 164.109 0 009.089 33.853 4.686 4.686 0 01-1.459 5.363l-47.64 37.765 12.631 21.773 56.768-22.215a4.689 4.689 0 015.347 1.41 166.43 166.43 0 0024.887 24.778 4.685 4.685 0 011.421 5.372l-22.289 56.453 21.892 12.583 37.97-47.439a4.679 4.679 0 015.336-1.446 166.042 166.042 0 0034.008 9.05 4.687 4.687 0 013.917 3.93l9.063 59.983h25.306l9.041-59.981a4.69 4.69 0 013.918-3.932 166.103 166.103 0 0034.023-9.051 4.689 4.689 0 015.336 1.446l37.977 47.441 21.891-12.584-22.295-56.454a4.683 4.683 0 011.42-5.371 167.246 167.246 0 0024.898-24.781 4.686 4.686 0 015.344-1.409l56.754 22.2 12.637-21.761-47.648-37.778a4.686 4.686 0 01-1.458-5.365 163.9 163.9 0 009.106-33.837zm-163.6 114.173c-77.331 0-140.249-62.603-140.299-139.569-.001-.032-.01-.062-.01-.093 0-.032.009-.062.01-.093.02-31.114 10.315-59.878 27.68-83.111.219-.399.492-.75.805-1.06 25.643-33.639 66.22-55.407 111.813-55.407 45.582 0 86.15 21.756 111.792 55.38.33.323.617.691.844 1.111 17.371 23.251 27.664 52.04 27.664 83.179.002 77.011-62.937 139.663-140.299 139.663z"/><path d="M202.522 158.408c6.238-12.073 13.464-21.725 21.365-28.727-27.206 6.854-51.045 22.204-68.49 43.037a348.248 348.248 0 0037.219 9.635c2.809-8.554 6.108-16.596 9.906-23.945zm118.481 102.285H260.69v52.716a328.892 328.892 0 0152.359 4.927c4.863-17.575 7.59-37.193 7.954-57.643zm1.138-69.26c5.044 18.334 7.867 38.711 8.232 59.89h56.467c-.938-26.29-9.732-50.624-24.125-70.734-13.483 4.469-27.012 8.085-40.574 10.844zm.128 128.655c13.618 2.777 27.202 6.417 40.739 10.918 14.217-20.027 22.9-44.204 23.832-70.313h-56.467c-.363 20.992-3.144 41.189-8.104 59.395zm-132.39-128.722c-13.539-2.754-27.069-6.35-40.578-10.788-14.396 20.112-23.193 44.45-24.132 70.744h56.458c.366-21.204 3.196-41.606 8.252-59.956zm119.603 162.237c-6.238 12.072-13.463 21.725-21.362 28.727 27.39-6.898 51.371-22.405 68.847-43.454a340.96 340.96 0 00-37.398-9.768c-2.847 8.759-6.208 16.987-10.087 24.495z"/></symbol><symbol fill="#fff" viewBox="0 0 20 12" id="eye" xmlns="http://www.w3.org/2000/svg"><path fill-rule="evenodd" clip-rule="evenodd" d="M9.997.03c-3.82 0-7.284 2.09-9.84 5.484a.791.791 0 000 .945c2.556 3.399 6.02 5.489 9.84 5.489 3.82 0 7.284-2.09 9.84-5.485a.791.791 0 000-.945C17.281 2.119 13.817.029 9.997.029zm.274 10.155a4.208 4.208 0 01-4.47-4.47 4.215 4.215 0 013.922-3.923 4.208 4.208 0 014.47 4.47 4.228 4.228 0 01-3.922 3.923zM7.739 5.84a2.26 2.26 0 002.405 2.405 2.274 2.274 0 002.115-2.114 2.26 2.26 0 00-2.405-2.405A2.274 2.274 0 007.739 5.84z"/></symbol><symbol viewBox="0 0 11 20" id="facebook" xmlns="http://www.w3.org/2000/svg"><path d="M10.586.004L7.947 0c-2.964 0-4.88 1.932-4.88 4.922v2.27H.416A.411.411 0 000 7.598v3.288c0 .226.186.408.415.408h2.653v8.297a.41.41 0 00.415.408h3.46c.23 0 .416-.183.416-.408v-8.297h3.101a.41.41 0 00.415-.408l.001-3.288a.405.405 0 00-.121-.288.419.419 0 00-.294-.12H7.36V5.268c0-.925.224-1.394 1.449-1.394l1.777-.001c.23 0 .415-.183.415-.408V.412a.411.411 0 00-.414-.408z"/></symbol><symbol viewBox="0 0 20 20" id="instagram" xmlns="http://www.w3.org/2000/svg"><path d="M9.997 6.665A3.342 3.342 0 006.663 10a3.342 3.342 0 003.334 3.335A3.342 3.342 0 0013.332 10a3.342 3.342 0 00-3.335-3.335zM20 10c0-1.38.012-2.75-.065-4.128-.078-1.6-.443-3.022-1.614-4.193C17.147.506 15.73.143 14.127.066 12.747-.012 11.378 0 10 0 8.619 0 7.25-.012 5.872.066 4.271.143 2.85.509 1.68 1.679.506 2.853.143 4.271.066 5.872-.012 7.253 0 8.622 0 10c0 1.378-.013 2.75.065 4.128.077 1.6.443 3.022 1.613 4.193 1.174 1.173 2.592 1.536 4.193 1.613C7.253 20.012 8.622 20 10 20c1.38 0 2.75.013 4.127-.065 1.602-.077 3.022-.443 4.193-1.613 1.174-1.174 1.536-2.592 1.614-4.193.08-1.379.065-2.747.065-4.128zM9.997 15.131A5.124 5.124 0 014.867 10a5.124 5.124 0 015.13-5.131A5.124 5.124 0 0115.128 10a5.124 5.124 0 01-5.13 5.131zm5.341-9.274A1.197 1.197 0 0114.14 4.66c0-.663.535-1.198 1.198-1.198a1.197 1.197 0 01.848 2.046 1.196 1.196 0 01-.848.35z"/></symbol><symbol viewBox="0 0 15 15" id="mail" xmlns="http://www.w3.org/2000/svg"><g clip-path="url(#ja)"><path d="M14.868 2.98l-4.55 4.52 4.55 4.52c.082-.172.132-.362.132-.565v-7.91c0-.203-.05-.393-.132-.565zm-1.186-.753H1.318c-.202 0-.392.05-.564.132l5.814 5.785a1.32 1.32 0 001.864 0l5.815-5.785a1.303 1.303 0 00-.565-.132zM.132 2.98A1.303 1.303 0 000 3.545v7.91c0 .203.05.393.132.565l4.55-4.52-4.55-4.52z"/><path d="M9.697 8.121l-.643.644a2.2 2.2 0 01-3.107 0l-.644-.644-4.55 4.52c.173.082.363.132.565.132h12.364c.203 0 .393-.05.565-.132l-4.55-4.52z"/></g><defs><clipPath id="ja"><path d="M0 0h15v15H0z"/></clipPath></defs></symbol><symbol viewBox="0 0 12 15" id="marker" xmlns="http://www.w3.org/2000/svg"><path d="M5.567 0c-3.032 0-5.5 2.437-5.5 5.432 0 3.718 4.922 9.175 5.132 9.406a.5.5 0 00.737 0c.21-.23 5.132-5.688 5.132-9.406C11.068 2.437 8.6 0 5.568 0zm0 8.166C4.043 8.166 2.8 6.939 2.8 5.432S4.042 2.7 5.568 2.7c1.525 0 2.767 1.226 2.767 2.733 0 1.508-1.242 2.734-2.768 2.734z"/></symbol><symbol viewBox="0 0 15 15" id="phone" xmlns="http://www.w3.org/2000/svg"><path d="M14.592 11.008l-2.093-2.093c-.748-.747-2.019-.448-2.318.524-.224.672-.972 1.046-1.645.897-1.495-.374-3.513-2.318-3.887-3.888-.225-.673.224-1.42.897-1.645.972-.299 1.27-1.57.523-2.317L3.976.392C3.378-.13 2.48-.13 1.957.392l-1.42 1.42C-.883 3.309.687 7.27 4.2 10.785c3.514 3.514 7.476 5.159 8.971 3.663l1.42-1.42c.524-.598.524-1.495 0-2.018z"/></symbol><symbol viewBox="0 0 512 512" id="rocket" xmlns="http://www.w3.org/2000/svg"><path d="M461.81 53.81a4.4 4.4 0 00-3.3-3.39c-54.38-13.3-180 34.09-248.13 102.17a294.9 294.9 0 00-33.09 39.08c-21-1.9-42-.3-59.88 7.5-50.49 22.2-65.18 80.18-69.28 105.07a9 9 0 009.8 10.4l81.07-8.9a180.29 180.29 0 001.1 18.3 18.15 18.15 0 005.3 11.09l31.39 31.39a18.15 18.15 0 0011.1 5.3 179.91 179.91 0 0018.19 1.1l-8.89 81a9 9 0 0010.39 9.79c24.9-4 83-18.69 105.07-69.17 7.8-17.9 9.4-38.79 7.6-59.69a293.91 293.91 0 0039.19-33.09c68.38-68 115.47-190.86 102.37-247.95zM298.66 213.67a42.7 42.7 0 1160.38 0 42.65 42.65 0 01-60.38 0z"/><path d="M109.64 352a45.06 45.06 0 00-26.35 12.84C65.67 382.52 64 448 64 448s65.52-1.67 83.15-19.31A44.73 44.73 0 00160 402.32"/></symbol><symbol viewBox="0 0 27 18" id="youtube" xmlns="http://www.w3.org/2000/svg"><path d="M26.41 2.57l.03.208c-.326-1.091-1.207-1.93-2.325-2.237l-.021-.005C21.984 0 13.514 0 13.514 0S5.064-.01 2.939.536C1.8.848.914 1.686.592 2.759l-.005.02C-.2 6.642-.204 11.286.624 15.424l-.037-.208c.327 1.091 1.208 1.93 2.326 2.237l.02.005C5.039 18 13.51 18 13.51 18s8.449 0 10.574-.54c1.145-.313 2.026-1.152 2.347-2.219l.006-.02c.358-1.795.564-3.864.564-5.978v-.476c.005-2.124-.2-4.193-.59-6.197zM10.812 12.86V5.14l7.052 3.865-7.052 3.855z"/></symbol></svg>